<svg width="48" height="48" viewBox="0 0 48 48" fill="none" xmlns="http://www.w3.org/2000/svg">
<path fill-rule="evenodd" clip-rule="evenodd" d="M47.2169 23.6777C47.2169 36.7465 36.6391 47.3554 23.6085 47.3554C10.5778 47.3554 0 36.7465 0 23.6777C0 10.6088 10.5778 0 23.6085 0C36.6391 0 47.2169 10.6088 47.2169 23.6777Z" fill="#0668E3"/>
<path fill-rule="evenodd" clip-rule="evenodd" d="M17.6296 34.4402L29.7405 46.5865C39.8584 43.9728 47.2169 34.7477 47.2169 23.6776V23.0626L37.7122 14.145L17.6296 34.4402Z" fill="#E6E7E8" fill-opacity="0.237899"/>
<path fill-rule="evenodd" clip-rule="evenodd" d="M32.4999 12.4539C33.573 11.3777 35.4127 11.3777 36.3325 12.4539L38.4787 14.6064C39.5518 15.6827 39.5518 17.5277 38.4787 18.604L24.5283 32.5953C24.5283 32.5953 24.3749 32.7491 24.2216 32.9028L22.0754 35.0553C21.0023 36.1316 19.316 36.1316 18.2429 35.0553L8.73818 25.5228C7.66507 24.4465 7.66507 22.6015 8.73818 21.679L10.8844 19.3727C11.9575 18.4502 13.7971 18.4502 14.7169 19.3727L20.0825 24.9078L32.4999 12.4539Z" fill="white"/>
</svg>
