<svg width="284" height="223" viewBox="0 0 284 223" fill="none" xmlns="http://www.w3.org/2000/svg">
<path d="M224.833 125.5C224.833 151.214 205.021 174.613 172.72 191.614C140.442 208.602 95.816 219.125 46.4958 219.125C-2.82433 219.125 -47.4505 208.602 -79.7285 191.614C-112.03 174.613 -131.842 151.214 -131.842 125.5C-131.842 99.7861 -112.03 76.3866 -79.7285 59.386C-47.4505 42.3976 -2.82433 31.875 46.4958 31.875C95.816 31.875 140.442 42.3976 172.72 59.386C205.021 76.3866 224.833 99.7861 224.833 125.5Z" stroke="#0668E3" stroke-opacity="0.09"/>
<path d="M283.4 125.5C283.4 159.878 256.916 191.121 213.827 213.799C170.761 236.466 111.232 250.5 45.45 250.5C-20.3317 250.5 -79.861 236.466 -122.927 213.799C-166.016 191.121 -192.5 159.878 -192.5 125.5C-192.5 91.1221 -166.016 59.8789 -122.927 37.2006C-79.861 14.5344 -20.3317 0.5 45.45 0.5C111.232 0.5 170.761 14.5344 213.827 37.2006C256.916 59.8789 283.4 91.1221 283.4 125.5Z" stroke="#0668E3" stroke-opacity="0.09"/>
<path d="M145.35 125.5C145.35 139.662 134.434 152.603 116.517 162.034C98.6226 171.452 73.8672 177.292 46.4958 177.292C19.1243 177.292 -5.63103 171.452 -23.5254 162.034C-41.4428 152.603 -52.3584 139.662 -52.3584 125.5C-52.3584 111.338 -41.4428 98.3971 -23.5254 88.9668C-5.63103 79.5488 19.1243 73.7085 46.4958 73.7085C73.8672 73.7085 98.6226 79.5488 116.517 88.9668C134.434 98.3971 145.35 111.338 145.35 125.5Z" stroke="#0668E3" stroke-opacity="0.09"/>
<path d="M88.875 125.5C88.875 133.373 84.2027 140.557 76.534 145.794C68.8678 151.029 58.2492 154.283 46.4959 154.283C34.7425 154.283 24.1239 151.029 16.4577 145.794C8.78899 140.557 4.1167 133.373 4.1167 125.5C4.1167 117.627 8.78899 110.444 16.4577 105.207C24.1239 99.9711 34.7425 96.7168 46.4959 96.7168C58.2492 96.7168 68.8678 99.9711 76.534 105.207C84.2027 110.444 88.875 117.627 88.875 125.5Z" stroke="#0668E3" stroke-opacity="0.09"/>
</svg>
