<svg width="194" height="240" viewBox="0 0 194 240" fill="none" xmlns="http://www.w3.org/2000/svg">
<path d="M417.833 125.5C417.833 151.214 398.021 174.613 365.72 191.614C333.442 208.602 288.816 219.125 239.496 219.125C190.176 219.125 145.549 208.602 113.271 191.614C80.9704 174.613 61.1583 151.214 61.1583 125.5C61.1583 99.7861 80.9704 76.3866 113.271 59.386C145.549 42.3976 190.176 31.875 239.496 31.875C288.816 31.875 333.442 42.3976 365.72 59.386C398.021 76.3866 417.833 99.7861 417.833 125.5Z" stroke="#0668E3" stroke-opacity="0.09"/>
<path d="M476.4 125.5C476.4 159.878 449.916 191.121 406.827 213.799C363.761 236.466 304.232 250.5 238.45 250.5C172.668 250.5 113.139 236.466 70.0733 213.799C26.9844 191.121 0.5 159.878 0.5 125.5C0.5 91.1221 26.9844 59.8789 70.0733 37.2006C113.139 14.5344 172.668 0.5 238.45 0.5C304.232 0.5 363.761 14.5344 406.827 37.2006C449.916 59.8789 476.4 91.1221 476.4 125.5Z" stroke="#0668E3" stroke-opacity="0.09"/>
<path d="M338.35 125.5C338.35 139.662 327.434 152.603 309.517 162.034C291.623 171.452 266.867 177.292 239.496 177.292C212.124 177.292 187.369 171.452 169.475 162.034C151.557 152.603 140.642 139.662 140.642 125.5C140.642 111.338 151.557 98.3971 169.475 88.9668C187.369 79.5488 212.124 73.7085 239.496 73.7085C266.867 73.7085 291.623 79.5488 309.517 88.9668C327.434 98.3971 338.35 111.338 338.35 125.5Z" stroke="#0668E3" stroke-opacity="0.09"/>
</svg>
